<!DOCTYPE svg PUBLIC "-//W3C//DTD SVG 20010904//EN" "http://www.w3.org/TR/2001/REC-SVG-20010904/DTD/svg10.dtd">
<svg version="1.0" xmlns="http://www.w3.org/2000/svg" width="597px" height="709px" viewBox="0 0 5970 7090" preserveAspectRatio="xMidYMid meet">
<g id="layer1" fill="#00009E" stroke="none">
 <path d="M2265 6883 c-314 -19 -574 -38 -579 -43 -4 -5 -43 -174 -86 -377 -43 -202 -137 -636 -210 -963 -106 -476 -149 -695 -216 -1095 -67 -405 -87 -502 -101 -513 -10 -7 -118 -86 -240 -174 l-222 -161 -168 -261 c-92 -144 -177 -277 -190 -296 -16 -25 -37 -106 -73 -280 l-51 -245 26 -346 c31 -418 30 -415 199 -741 110 -213 121 -230 253 -390 133 -162 143 -172 301 -288 145 -107 193 -135 425 -252 362 -181 538 -246 806 -298 l208 -40 271 0 271 0 318 69 c278 61 349 80 563 155 239 84 250 89 446 206 l200 120 249 265 248 264 123 234 124 233 49 229 c48 225 49 235 56 460 7 222 6 235 -19 366 -40 209 -103 404 -179 554 -55 110 -85 153 -192 281 l-126 152 -182 121 c-172 114 -195 126 -417 217 -129 52 -240 101 -246 107 -7 7 -49 129 -94 272 -151 475 -415 1242 -640 1860 -122 336 -227 616 -232 623 -13 15 5 16 -673 -25z m1132 -1743 c198 -553 327 -939 321 -964 -4 -17 -300 65 -491 136 -119 44 -162 66 -270 139 l-127 86 -115 153 c-63 84 -117 155 -120 158 -7 8 -405 -81 -423 -94 -15 -11 -14 -16 10 -50 31 -45 48 -146 48 -279 0 -70 -3 -86 -17 -94 -10 -5 -164 -59 -343 -120 -179 -62 -393 -135 -477 -164 -83 -29 -154 -49 -157 -46 -7 6 269 1551 283 1584 8 19 43 22 812 71 442 29 817 51 833 50 l30 -1 203 -565z"/>
 </g>

</svg>