<?xml version="1.0" encoding="utf-8"?>
<!-- Svg Vector Icons : http://www.onlinewebfonts.com/icon -->
<!DOCTYPE svg PUBLIC "-//W3C//DTD SVG 1.1//EN" "http://www.w3.org/Graphics/SVG/1.1/DTD/svg11.dtd">
<svg version="1.1" xmlns="http://www.w3.org/2000/svg" xmlns:xlink="http://www.w3.org/1999/xlink" x="0px" y="0px" viewBox="0 0 1000 1000" enable-background="new 0 0 1000 1000" xml:space="preserve">
<metadata> Svg Vector Icons : http://www.onlinewebfonts.com/icon </metadata>
<g><g fill="#ffffff" transform="translate(0.000000,511.000000) scale(0.100000,-0.100000)"><path d="M4526.4,5001.4c-673-81.8-1206.8-239.3-1763.2-521.6C1513.4,3841.6,582.7,2675.7,241.1,1321.6C128.6,875.7,100,622,100,114.8c0-331.4,10.2-515.5,36.8-695.5c126.8-846.8,452.1-1609.8,979.8-2311.4c178-235.2,683.2-732.3,934.8-918.4c693.4-515.4,1472.7-830.5,2321.6-943c321.1-42.9,926.6-42.9,1247.7,0c1748.9,229.1,3223.7,1358.2,3906.9,2986.4c591.2,1411.4,472.5,3080.5-313,4385.5C8463.9,3866.2,7251,4696.6,5804.8,4954.4c-194.3,34.8-345.7,45-726.1,49.1C4814.8,5007.5,4565.3,5005.5,4526.4,5001.4z M5510.3,3937.8c198.4-190.2,26.6-507.3-243.4-448c-126.8,26.6-223,192.3-188.2,321.1c22.5,71.6,92,155.4,153.4,182C5309.8,4027.7,5444.8,3999.1,5510.3,3937.8z M3421.8,2984.6c255.7-110.5,396.8-409.1,319.1-677c-116.6-400.9-615.7-558.4-924.6-292.5c-249.5,212.7-278.2,591.1-63.4,824.3C2935,3037.7,3178.4,3090.9,3421.8,2984.6z M6140.3,2463c564.5-190.2,754.7-916.4,355.9-1358.2C6017.5,575,5154.4,828.6,5033.7,1534.3C4927.3,2152.1,5541,2665.5,6140.3,2463z M8584.6,1612.1c182-139.1,206.6-400.9,55.2-574.8c-92.1-104.3-298.6-145.2-437.7-85.9c-116.6,47.1-239.3,227.1-239.3,349.8c0,112.5,98.2,268,214.8,341.6C8273.7,1704.1,8484.4,1687.7,8584.6,1612.1z M4422.1,331.6C4561.2,235.4,4598,86.1,4522.3-57c-63.4-116.6-157.5-171.8-284.3-159.6c-124.8,10.2-210.7,73.6-253.6,188.2c-47,118.6-26.6,216.8,57.3,310.9C4141.9,390.9,4307.5,411.4,4422.1,331.6z M7956.6-278c110.5-87.9,155.4-173.9,157.5-300.7c4.1-333.4-384.6-513.4-636.2-292.5c-90,79.8-128.8,167.7-128.8,290.5c0,229.1,167.7,384.5,402.9,372.3C7858.5-212.5,7893.2-224.8,7956.6-278z"/></g></g>
</svg>